<?xml version="1.0"?>
<!-- Generated by SVGo and Plotinum VG -->
<svg width="1640pt" height="820pt" viewBox="0 0 1640 820"
	xmlns="http://www.w3.org/2000/svg"
	xmlns:xlink="http://www.w3.org/1999/xlink">
<g transform="scale(1, -1) translate(0, -820)">
<path d="M0,0L1640,0L1640,820L0,820Z" style="fill:#FFFFFF" />
<text x="840.25" y="-3.8613" transform="scale(1, -1)"
	style="font-family:Times;font-weight:normal;font-style:normal;font-size:12px">size</text>
<text x="61.666" y="-15.602" transform="scale(1, -1)"
	style="font-family:Times;font-weight:normal;font-style:normal;font-size:10px">100</text>
<text x="173.15" y="-15.602" transform="scale(1, -1)"
	style="font-family:Times;font-weight:normal;font-style:normal;font-size:10px">200</text>
<text x="284.64" y="-15.602" transform="scale(1, -1)"
	style="font-family:Times;font-weight:normal;font-style:normal;font-size:10px">300</text>
<text x="396.13" y="-15.602" transform="scale(1, -1)"
	style="font-family:Times;font-weight:normal;font-style:normal;font-size:10px">400</text>
<text x="507.62" y="-15.602" transform="scale(1, -1)"
	style="font-family:Times;font-weight:normal;font-style:normal;font-size:10px">500</text>
<text x="619.11" y="-15.602" transform="scale(1, -1)"
	style="font-family:Times;font-weight:normal;font-style:normal;font-size:10px">600</text>
<text x="730.59" y="-15.602" transform="scale(1, -1)"
	style="font-family:Times;font-weight:normal;font-style:normal;font-size:10px">700</text>
<text x="842.08" y="-15.602" transform="scale(1, -1)"
	style="font-family:Times;font-weight:normal;font-style:normal;font-size:10px">800</text>
<text x="953.57" y="-15.602" transform="scale(1, -1)"
	style="font-family:Times;font-weight:normal;font-style:normal;font-size:10px">900</text>
<text x="1062.6" y="-15.602" transform="scale(1, -1)"
	style="font-family:Times;font-weight:normal;font-style:normal;font-size:10px">1000</text>
<text x="1174.2" y="-15.602" transform="scale(1, -1)"
	style="font-family:Times;font-weight:normal;font-style:normal;font-size:10px">1100</text>
<text x="1285.5" y="-15.602" transform="scale(1, -1)"
	style="font-family:Times;font-weight:normal;font-style:normal;font-size:10px">1200</text>
<text x="1397" y="-15.602" transform="scale(1, -1)"
	style="font-family:Times;font-weight:normal;font-style:normal;font-size:10px">1300</text>
<text x="1508.5" y="-15.602" transform="scale(1, -1)"
	style="font-family:Times;font-weight:normal;font-style:normal;font-size:10px">1400</text>
<text x="1620" y="-15.602" transform="scale(1, -1)"
	style="font-family:Times;font-weight:normal;font-style:normal;font-size:10px">1500</text>
<g transform="rotate(90)">
<text x="412.11" y="11.555" transform="scale(1, -1)"
	style="font-family:Times;font-weight:normal;font-style:normal;font-size:12px">ns/op</text>
</g>
<text x="20.416" y="-170.86" transform="scale(1, -1)"
	style="font-family:Times;font-weight:normal;font-style:normal;font-size:10px">200000</text>
<text x="20.416" y="-463.45" transform="scale(1, -1)"
	style="font-family:Times;font-weight:normal;font-style:normal;font-size:10px">600000</text>
<text x="15.416" y="-756.04" transform="scale(1, -1)"
	style="font-family:Times;font-weight:normal;font-style:normal;font-size:10px">1000000</text>
<path d="M52.916,175.59L60.916,175.59" style="fill:none;stroke:#000000;stroke-width:0.5" />
<path d="M52.916,468.17L60.916,468.17" style="fill:none;stroke:#000000;stroke-width:0.5" />
<path d="M52.916,760.76L60.916,760.76" style="fill:none;stroke:#000000;stroke-width:0.5" />
<path d="M56.916,102.44L60.916,102.44" style="fill:none;stroke:#000000;stroke-width:0.5" />
<path d="M56.916,248.73L60.916,248.73" style="fill:none;stroke:#000000;stroke-width:0.5" />
<path d="M56.916,321.88L60.916,321.88" style="fill:none;stroke:#000000;stroke-width:0.5" />
<path d="M56.916,395.03L60.916,395.03" style="fill:none;stroke:#000000;stroke-width:0.5" />
<path d="M56.916,541.32L60.916,541.32" style="fill:none;stroke:#000000;stroke-width:0.5" />
<path d="M56.916,614.47L60.916,614.47" style="fill:none;stroke:#000000;stroke-width:0.5" />
<path d="M56.916,687.62L60.916,687.62" style="fill:none;stroke:#000000;stroke-width:0.5" />
<path d="M60.916,30.23L60.916,820" style="fill:none;stroke:#000000;stroke-width:0.5" />
<path d="M69.166,30.566L180.65,32.131L292.14,33.876L403.63,34.76L515.12,36.477L626.61,38.326L738.09,39.642L849.58,40.827L961.07,44.479L1072.6,46.463L1184,50.448L1295.5,53.297L1407,58.42L1518.5,61.646L1630,64.294" style="fill:none;stroke:#F15A60" />
<path d="M69.166,30.23L180.65,32.256L292.14,35.87L403.63,39.561L515.12,44.416L626.61,51.469L738.09,56.628L849.58,65.283L961.07,73.37L1072.6,82.921L1184,99.432L1295.5,106.54L1407,120.41L1518.5,133.89L1630,146.83" style="fill:none;stroke:#7AC36A" />
<path d="M69.166,32.032L180.65,40.486L292.14,59.239L403.63,89.718L515.12,125.07L626.61,171.11L738.09,218.04L849.58,275.41L961.07,333.61L1072.6,405.95L1184,462.09L1295.5,564.18L1407,631.7L1518.5,717.72L1630,820" style="fill:none;stroke:#5A9BD4" />
<path d="M1620,814.11L1640,814.11" style="fill:none;stroke:#F15A60" />
<text x="1458.9" y="-808.45" transform="scale(1, -1)"
	style="font-family:Times;font-weight:normal;font-style:normal;font-size:12px">[BenchmarkQuicksortRandom=]</text>
<path d="M1620,802.33L1640,802.33" style="fill:none;stroke:#7AC36A" />
<text x="1443.6" y="-796.67" transform="scale(1, -1)"
	style="font-family:Times;font-weight:normal;font-style:normal;font-size:12px">[BenchmarkInsertionSortRandom=]</text>
<path d="M1620,790.56L1640,790.56" style="fill:none;stroke:#5A9BD4" />
<text x="1451.6" y="-784.89" transform="scale(1, -1)"
	style="font-family:Times;font-weight:normal;font-style:normal;font-size:12px">[BenchmarkBubbleSortRandom=]</text>
</g>
</svg>
