<?xml version="1.0"?>
<!-- Generated by SVGo and Plotinum VG -->
<svg width="1640pt" height="820pt" viewBox="0 0 1640 820"
	xmlns="http://www.w3.org/2000/svg"
	xmlns:xlink="http://www.w3.org/1999/xlink">
<g transform="scale(1, -1) translate(0, -820)">
<path d="M0,0L1640,0L1640,820L0,820Z" style="fill:#FFFFFF" />
<text x="840.25" y="-3.8613" transform="scale(1, -1)"
	style="font-family:Times;font-weight:normal;font-style:normal;font-size:12px">size</text>
<text x="61.666" y="-15.602" transform="scale(1, -1)"
	style="font-family:Times;font-weight:normal;font-style:normal;font-size:10px">100</text>
<text x="173.15" y="-15.602" transform="scale(1, -1)"
	style="font-family:Times;font-weight:normal;font-style:normal;font-size:10px">200</text>
<text x="284.64" y="-15.602" transform="scale(1, -1)"
	style="font-family:Times;font-weight:normal;font-style:normal;font-size:10px">300</text>
<text x="396.13" y="-15.602" transform="scale(1, -1)"
	style="font-family:Times;font-weight:normal;font-style:normal;font-size:10px">400</text>
<text x="507.62" y="-15.602" transform="scale(1, -1)"
	style="font-family:Times;font-weight:normal;font-style:normal;font-size:10px">500</text>
<text x="619.11" y="-15.602" transform="scale(1, -1)"
	style="font-family:Times;font-weight:normal;font-style:normal;font-size:10px">600</text>
<text x="730.59" y="-15.602" transform="scale(1, -1)"
	style="font-family:Times;font-weight:normal;font-style:normal;font-size:10px">700</text>
<text x="842.08" y="-15.602" transform="scale(1, -1)"
	style="font-family:Times;font-weight:normal;font-style:normal;font-size:10px">800</text>
<text x="953.57" y="-15.602" transform="scale(1, -1)"
	style="font-family:Times;font-weight:normal;font-style:normal;font-size:10px">900</text>
<text x="1062.6" y="-15.602" transform="scale(1, -1)"
	style="font-family:Times;font-weight:normal;font-style:normal;font-size:10px">1000</text>
<text x="1174.2" y="-15.602" transform="scale(1, -1)"
	style="font-family:Times;font-weight:normal;font-style:normal;font-size:10px">1100</text>
<text x="1285.5" y="-15.602" transform="scale(1, -1)"
	style="font-family:Times;font-weight:normal;font-style:normal;font-size:10px">1200</text>
<text x="1397" y="-15.602" transform="scale(1, -1)"
	style="font-family:Times;font-weight:normal;font-style:normal;font-size:10px">1300</text>
<text x="1508.5" y="-15.602" transform="scale(1, -1)"
	style="font-family:Times;font-weight:normal;font-style:normal;font-size:10px">1400</text>
<text x="1620" y="-15.602" transform="scale(1, -1)"
	style="font-family:Times;font-weight:normal;font-style:normal;font-size:10px">1500</text>
<g transform="rotate(90)">
<text x="412.11" y="11.555" transform="scale(1, -1)"
	style="font-family:Times;font-weight:normal;font-style:normal;font-size:12px">ns/op</text>
</g>
<text x="20.416" y="-170.71" transform="scale(1, -1)"
	style="font-family:Times;font-weight:normal;font-style:normal;font-size:10px">200000</text>
<text x="20.416" y="-461.83" transform="scale(1, -1)"
	style="font-family:Times;font-weight:normal;font-style:normal;font-size:10px">600000</text>
<text x="15.416" y="-752.94" transform="scale(1, -1)"
	style="font-family:Times;font-weight:normal;font-style:normal;font-size:10px">1000000</text>
<path d="M52.916,175.43L60.916,175.43" style="fill:none;stroke:#000000;stroke-width:0.5" />
<path d="M52.916,466.55L60.916,466.55" style="fill:none;stroke:#000000;stroke-width:0.5" />
<path d="M52.916,757.66L60.916,757.66" style="fill:none;stroke:#000000;stroke-width:0.5" />
<path d="M56.916,102.65L60.916,102.65" style="fill:none;stroke:#000000;stroke-width:0.5" />
<path d="M56.916,248.21L60.916,248.21" style="fill:none;stroke:#000000;stroke-width:0.5" />
<path d="M56.916,320.99L60.916,320.99" style="fill:none;stroke:#000000;stroke-width:0.5" />
<path d="M56.916,393.77L60.916,393.77" style="fill:none;stroke:#000000;stroke-width:0.5" />
<path d="M56.916,539.33L60.916,539.33" style="fill:none;stroke:#000000;stroke-width:0.5" />
<path d="M56.916,612.1L60.916,612.1" style="fill:none;stroke:#000000;stroke-width:0.5" />
<path d="M56.916,684.88L60.916,684.88" style="fill:none;stroke:#000000;stroke-width:0.5" />
<path d="M60.916,30.23L60.916,820" style="fill:none;stroke:#000000;stroke-width:0.5" />
<path d="M69.166,31.137L180.65,32.549L292.14,34.098L403.63,35.37L515.12,36.822L626.61,38.251L738.09,40.092L849.58,41.945L961.07,44.915L1072.6,49.623L1184,52.157L1295.5,56.095L1407,58.532L1518.5,63.503L1630,65.785" style="fill:none;stroke:#F15A60" />
<path d="M69.166,30.23L180.65,30.55L292.14,30.96L403.63,31.11L515.12,31.613L626.61,31.897L738.09,32.224L849.58,32.523L961.07,33.087L1072.6,33.352L1184,33.52L1295.5,33.696L1407,34.046L1518.5,34.608L1630,34.78" style="fill:none;stroke:#7AC36A" />
<path d="M69.166,32.616L180.65,41.366L292.14,60.974L403.63,91.487L515.12,127.82L626.61,173.9L738.09,216.86L849.58,271.98L961.07,332.53L1072.6,404.21L1184,474.33L1295.5,547.94L1407,652.56L1518.5,723L1630,820" style="fill:none;stroke:#5A9BD4" />
<path d="M1620,814.11L1640,814.11" style="fill:none;stroke:#F15A60" />
<text x="1458.9" y="-808.45" transform="scale(1, -1)"
	style="font-family:Times;font-weight:normal;font-style:normal;font-size:12px">[BenchmarkQuicksortRandom=]</text>
<path d="M1620,802.33L1640,802.33" style="fill:none;stroke:#7AC36A" />
<text x="1441.6" y="-796.67" transform="scale(1, -1)"
	style="font-family:Times;font-weight:normal;font-style:normal;font-size:12px">[BenchmarkCountingSortRandom=]</text>
<path d="M1620,790.56L1640,790.56" style="fill:none;stroke:#5A9BD4" />
<text x="1451.6" y="-784.89" transform="scale(1, -1)"
	style="font-family:Times;font-weight:normal;font-style:normal;font-size:12px">[BenchmarkBubbleSortRandom=]</text>
</g>
</svg>
