<?xml version="1.0"?>
<!-- Generated by SVGo and Plotinum VG -->
<svg width="1640pt" height="820pt" viewBox="0 0 1640 820"
	xmlns="http://www.w3.org/2000/svg"
	xmlns:xlink="http://www.w3.org/1999/xlink">
<g transform="scale(1, -1) translate(0, -820)">
<path d="M0,0L1640,0L1640,820L0,820Z" style="fill:#FFFFFF" />
<text x="837.75" y="-3.8613" transform="scale(1, -1)"
	style="font-family:Times;font-weight:normal;font-style:normal;font-size:12px">size</text>
<text x="56.666" y="-15.602" transform="scale(1, -1)"
	style="font-family:Times;font-weight:normal;font-style:normal;font-size:10px">100</text>
<text x="168.51" y="-15.602" transform="scale(1, -1)"
	style="font-family:Times;font-weight:normal;font-style:normal;font-size:10px">200</text>
<text x="280.36" y="-15.602" transform="scale(1, -1)"
	style="font-family:Times;font-weight:normal;font-style:normal;font-size:10px">300</text>
<text x="392.2" y="-15.602" transform="scale(1, -1)"
	style="font-family:Times;font-weight:normal;font-style:normal;font-size:10px">400</text>
<text x="504.05" y="-15.602" transform="scale(1, -1)"
	style="font-family:Times;font-weight:normal;font-style:normal;font-size:10px">500</text>
<text x="615.89" y="-15.602" transform="scale(1, -1)"
	style="font-family:Times;font-weight:normal;font-style:normal;font-size:10px">600</text>
<text x="727.74" y="-15.602" transform="scale(1, -1)"
	style="font-family:Times;font-weight:normal;font-style:normal;font-size:10px">700</text>
<text x="839.58" y="-15.602" transform="scale(1, -1)"
	style="font-family:Times;font-weight:normal;font-style:normal;font-size:10px">800</text>
<text x="951.43" y="-15.602" transform="scale(1, -1)"
	style="font-family:Times;font-weight:normal;font-style:normal;font-size:10px">900</text>
<text x="1060.8" y="-15.602" transform="scale(1, -1)"
	style="font-family:Times;font-weight:normal;font-style:normal;font-size:10px">1000</text>
<text x="1172.8" y="-15.602" transform="scale(1, -1)"
	style="font-family:Times;font-weight:normal;font-style:normal;font-size:10px">1100</text>
<text x="1284.5" y="-15.602" transform="scale(1, -1)"
	style="font-family:Times;font-weight:normal;font-style:normal;font-size:10px">1200</text>
<text x="1396.3" y="-15.602" transform="scale(1, -1)"
	style="font-family:Times;font-weight:normal;font-style:normal;font-size:10px">1300</text>
<text x="1508.2" y="-15.602" transform="scale(1, -1)"
	style="font-family:Times;font-weight:normal;font-style:normal;font-size:10px">1400</text>
<text x="1620" y="-15.602" transform="scale(1, -1)"
	style="font-family:Times;font-weight:normal;font-style:normal;font-size:10px">1500</text>
<g transform="rotate(90)">
<text x="412.11" y="11.555" transform="scale(1, -1)"
	style="font-family:Times;font-weight:normal;font-style:normal;font-size:12px">ns/op</text>
</g>
<text x="15.416" y="-125.32" transform="scale(1, -1)"
	style="font-family:Times;font-weight:normal;font-style:normal;font-size:10px">100000</text>
<text x="15.416" y="-425.02" transform="scale(1, -1)"
	style="font-family:Times;font-weight:normal;font-style:normal;font-size:10px">400000</text>
<text x="15.416" y="-724.72" transform="scale(1, -1)"
	style="font-family:Times;font-weight:normal;font-style:normal;font-size:10px">700000</text>
<path d="M47.916,130.05L55.916,130.05" style="fill:none;stroke:#000000;stroke-width:0.5" />
<path d="M47.916,429.74L55.916,429.74" style="fill:none;stroke:#000000;stroke-width:0.5" />
<path d="M47.916,729.44L55.916,729.44" style="fill:none;stroke:#000000;stroke-width:0.5" />
<path d="M51.916,229.94L55.916,229.94" style="fill:none;stroke:#000000;stroke-width:0.5" />
<path d="M51.916,329.84L55.916,329.84" style="fill:none;stroke:#000000;stroke-width:0.5" />
<path d="M51.916,529.64L55.916,529.64" style="fill:none;stroke:#000000;stroke-width:0.5" />
<path d="M51.916,629.54L55.916,629.54" style="fill:none;stroke:#000000;stroke-width:0.5" />
<path d="M55.916,30.23L55.916,820" style="fill:none;stroke:#000000;stroke-width:0.5" />
<path d="M64.166,35.26L176.01,47.025L287.86,65.986L399.7,91.106L511.55,123.9L623.39,163.35L735.24,209.26L847.08,260.84L958.93,322.86L1070.8,385.63L1182.6,461.41L1294.5,542.65L1406.3,632.77L1518.2,720.96L1630,820" style="fill:none;stroke:#F15A60" />
<path d="M64.166,30.23L176.01,30.324L287.86,30.431L399.7,30.453L511.55,30.528L623.39,30.602L735.24,30.666L847.08,30.743L958.93,30.813L1070.8,30.894L1182.6,30.959L1294.5,31.029L1406.3,31.108L1518.2,31.177L1630,31.249" style="fill:none;stroke:#7AC36A" />
<path d="M64.166,33.705L176.01,43.031L287.86,58.315L399.7,78.947L511.55,105.18L623.39,138.19L735.24,177.02L847.08,218.84L958.93,268.71L1070.8,326.78L1182.6,385.36L1294.5,450.19L1406.3,522.92L1518.2,607.3L1630,689.16" style="fill:none;stroke:#5A9BD4" />
<path d="M1620,814.11L1640,814.11" style="fill:none;stroke:#F15A60" />
<text x="1468.3" y="-808.45" transform="scale(1, -1)"
	style="font-family:Times;font-weight:normal;font-style:normal;font-size:12px">[BenchmarkQuicksortSorted=]</text>
<path d="M1620,802.33L1640,802.33" style="fill:none;stroke:#7AC36A" />
<text x="1452.9" y="-796.67" transform="scale(1, -1)"
	style="font-family:Times;font-weight:normal;font-style:normal;font-size:12px">[BenchmarkInsertionSortSorted=]</text>
<path d="M1620,790.56L1640,790.56" style="fill:none;stroke:#5A9BD4" />
<text x="1460.9" y="-784.89" transform="scale(1, -1)"
	style="font-family:Times;font-weight:normal;font-style:normal;font-size:12px">[BenchmarkBubbleSortSorted=]</text>
</g>
</svg>
