<?xml version="1.0"?>
<!-- Generated by SVGo and Plotinum VG -->
<svg width="1490pt" height="745pt" viewBox="0 0 1490 745"
	xmlns="http://www.w3.org/2000/svg"
	xmlns:xlink="http://www.w3.org/1999/xlink">
<g transform="scale(1, -1) translate(0, -745)">
<path d="M0,0L1490,0L1490,745L0,745Z" style="fill:#FFFFFF" />
<text x="762.75" y="-3.8613" transform="scale(1, -1)"
	style="font-family:Times;font-weight:normal;font-style:normal;font-size:12px">size</text>
<text x="56.666" y="-15.602" transform="scale(1, -1)"
	style="font-family:Times;font-weight:normal;font-style:normal;font-size:10px">10</text>
<text x="131.45" y="-15.602" transform="scale(1, -1)"
	style="font-family:Times;font-weight:normal;font-style:normal;font-size:10px">15</text>
<text x="206.23" y="-15.602" transform="scale(1, -1)"
	style="font-family:Times;font-weight:normal;font-style:normal;font-size:10px">20</text>
<text x="281.01" y="-15.602" transform="scale(1, -1)"
	style="font-family:Times;font-weight:normal;font-style:normal;font-size:10px">25</text>
<text x="355.79" y="-15.602" transform="scale(1, -1)"
	style="font-family:Times;font-weight:normal;font-style:normal;font-size:10px">30</text>
<text x="430.57" y="-15.602" transform="scale(1, -1)"
	style="font-family:Times;font-weight:normal;font-style:normal;font-size:10px">35</text>
<text x="505.35" y="-15.602" transform="scale(1, -1)"
	style="font-family:Times;font-weight:normal;font-style:normal;font-size:10px">40</text>
<text x="580.13" y="-15.602" transform="scale(1, -1)"
	style="font-family:Times;font-weight:normal;font-style:normal;font-size:10px">45</text>
<text x="654.91" y="-15.602" transform="scale(1, -1)"
	style="font-family:Times;font-weight:normal;font-style:normal;font-size:10px">50</text>
<text x="729.69" y="-15.602" transform="scale(1, -1)"
	style="font-family:Times;font-weight:normal;font-style:normal;font-size:10px">55</text>
<text x="804.47" y="-15.602" transform="scale(1, -1)"
	style="font-family:Times;font-weight:normal;font-style:normal;font-size:10px">60</text>
<text x="879.25" y="-15.602" transform="scale(1, -1)"
	style="font-family:Times;font-weight:normal;font-style:normal;font-size:10px">65</text>
<text x="954.03" y="-15.602" transform="scale(1, -1)"
	style="font-family:Times;font-weight:normal;font-style:normal;font-size:10px">70</text>
<text x="1028.8" y="-15.602" transform="scale(1, -1)"
	style="font-family:Times;font-weight:normal;font-style:normal;font-size:10px">75</text>
<text x="1103.6" y="-15.602" transform="scale(1, -1)"
	style="font-family:Times;font-weight:normal;font-style:normal;font-size:10px">80</text>
<text x="1178.4" y="-15.602" transform="scale(1, -1)"
	style="font-family:Times;font-weight:normal;font-style:normal;font-size:10px">85</text>
<text x="1253.2" y="-15.602" transform="scale(1, -1)"
	style="font-family:Times;font-weight:normal;font-style:normal;font-size:10px">90</text>
<text x="1327.9" y="-15.602" transform="scale(1, -1)"
	style="font-family:Times;font-weight:normal;font-style:normal;font-size:10px">95</text>
<text x="1400.2" y="-15.602" transform="scale(1, -1)"
	style="font-family:Times;font-weight:normal;font-style:normal;font-size:10px">100</text>
<text x="1475" y="-15.602" transform="scale(1, -1)"
	style="font-family:Times;font-weight:normal;font-style:normal;font-size:10px">105</text>
<g transform="rotate(90)">
<text x="375.95" y="11.555" transform="scale(1, -1)"
	style="font-family:Times;font-weight:normal;font-style:normal;font-size:12px">B/op</text>
</g>
<text x="20.416" y="-156.52" transform="scale(1, -1)"
	style="font-family:Times;font-weight:normal;font-style:normal;font-size:10px">20000</text>
<text x="20.416" y="-444.45" transform="scale(1, -1)"
	style="font-family:Times;font-weight:normal;font-style:normal;font-size:10px">60000</text>
<text x="15.416" y="-732.39" transform="scale(1, -1)"
	style="font-family:Times;font-weight:normal;font-style:normal;font-size:10px">100000</text>
<path d="M47.916,161.24L55.916,161.24" style="fill:none;stroke:#000000;stroke-width:0.5" />
<path d="M47.916,449.18L55.916,449.18" style="fill:none;stroke:#000000;stroke-width:0.5" />
<path d="M47.916,737.11L55.916,737.11" style="fill:none;stroke:#000000;stroke-width:0.5" />
<path d="M51.916,89.257L55.916,89.257" style="fill:none;stroke:#000000;stroke-width:0.5" />
<path d="M51.916,233.22L55.916,233.22" style="fill:none;stroke:#000000;stroke-width:0.5" />
<path d="M51.916,305.21L55.916,305.21" style="fill:none;stroke:#000000;stroke-width:0.5" />
<path d="M51.916,377.19L55.916,377.19" style="fill:none;stroke:#000000;stroke-width:0.5" />
<path d="M51.916,521.16L55.916,521.16" style="fill:none;stroke:#000000;stroke-width:0.5" />
<path d="M51.916,593.14L55.916,593.14" style="fill:none;stroke:#000000;stroke-width:0.5" />
<path d="M51.916,665.13L55.916,665.13" style="fill:none;stroke:#000000;stroke-width:0.5" />
<path d="M55.916,30.23L55.916,745" style="fill:none;stroke:#000000;stroke-width:0.5" />
<path d="M61.666,30.23L136.45,37.371L211.23,54.763L286.01,67.086L360.79,85.284L435.57,113.85L510.35,143.1L585.13,166.37L659.91,191.93L734.69,219.81L809.47,264.03L884.25,334.98L959.03,355.71L1033.8,411.46L1108.6,471.81L1183.4,497.15L1258.2,564.41L1332.9,592.05L1407.7,712.75L1482.5,745" style="fill:none;stroke:#F15A60" />
<path d="M61.666,30.23L136.45,37.371L211.23,54.763L286.01,67.086L360.79,85.284L435.57,113.85L510.35,143.1L585.13,166.37L659.91,191.93L734.69,219.81L809.47,264.03L884.25,334.98L959.03,355.71L1033.8,411.46L1108.6,471.81L1183.4,497.15L1258.2,564.41L1332.9,592.05L1407.7,712.75L1482.5,745" style="fill:none;stroke:#7AC36A" />
<path d="M1470,739.11L1490,739.11" style="fill:none;stroke:#F15A60" />
<text x="1297" y="-733.45" transform="scale(1, -1)"
	style="font-family:Times;font-weight:normal;font-style:normal;font-size:12px">[BenchmarkDL_CacheRecursive=]</text>
<path d="M1470,727.33L1490,727.33" style="fill:none;stroke:#7AC36A" />
<text x="1352.3" y="-721.67" transform="scale(1, -1)"
	style="font-family:Times;font-weight:normal;font-style:normal;font-size:12px">[BenchmarkDL_STD=]</text>
</g>
</svg>
