<?xml version="1.0"?>
<!-- Generated by SVGo and Plotinum VG -->
<svg width="1490pt" height="745pt" viewBox="0 0 1490 745"
	 xmlns="http://www.w3.org/2000/svg"
	 xmlns:xlink="http://www.w3.org/1999/xlink">
	<g transform="scale(1, -1) translate(0, -745)">
		<path d="M0,0L1490,0L1490,745L0,745Z" style="fill:#FFFFFF" />
		<text x="762.75" y="-3.8613" transform="scale(1, -1)"
			  style="font-family:Times;font-weight:normal;font-style:normal;font-size:16px">size</text>
		<text x="56.666" y="-15.602" transform="scale(1, -1)"
			  style="font-family:Times;font-weight:normal;font-style:normal;font-size:14px">10</text>
		<text x="131.45" y="-15.602" transform="scale(1, -1)"
			  style="font-family:Times;font-weight:normal;font-style:normal;font-size:14px">15</text>
		<text x="206.23" y="-15.602" transform="scale(1, -1)"
			  style="font-family:Times;font-weight:normal;font-style:normal;font-size:14px">20</text>
		<text x="281.01" y="-15.602" transform="scale(1, -1)"
			  style="font-family:Times;font-weight:normal;font-style:normal;font-size:14px">25</text>
		<text x="355.79" y="-15.602" transform="scale(1, -1)"
			  style="font-family:Times;font-weight:normal;font-style:normal;font-size:14px">30</text>
		<text x="430.57" y="-15.602" transform="scale(1, -1)"
			  style="font-family:Times;font-weight:normal;font-style:normal;font-size:14px">35</text>
		<text x="505.35" y="-15.602" transform="scale(1, -1)"
			  style="font-family:Times;font-weight:normal;font-style:normal;font-size:14px">40</text>
		<text x="580.13" y="-15.602" transform="scale(1, -1)"
			  style="font-family:Times;font-weight:normal;font-style:normal;font-size:14px">45</text>
		<text x="654.91" y="-15.602" transform="scale(1, -1)"
			  style="font-family:Times;font-weight:normal;font-style:normal;font-size:14px">50</text>
		<text x="729.69" y="-15.602" transform="scale(1, -1)"
			  style="font-family:Times;font-weight:normal;font-style:normal;font-size:14px">55</text>
		<text x="804.47" y="-15.602" transform="scale(1, -1)"
			  style="font-family:Times;font-weight:normal;font-style:normal;font-size:14px">60</text>
		<text x="879.25" y="-15.602" transform="scale(1, -1)"
			  style="font-family:Times;font-weight:normal;font-style:normal;font-size:14px">65</text>
		<text x="954.03" y="-15.602" transform="scale(1, -1)"
			  style="font-family:Times;font-weight:normal;font-style:normal;font-size:14px">70</text>
		<text x="1028.8" y="-15.602" transform="scale(1, -1)"
			  style="font-family:Times;font-weight:normal;font-style:normal;font-size:14px">75</text>
		<text x="1103.6" y="-15.602" transform="scale(1, -1)"
			  style="font-family:Times;font-weight:normal;font-style:normal;font-size:14px">80</text>
		<text x="1178.4" y="-15.602" transform="scale(1, -1)"
			  style="font-family:Times;font-weight:normal;font-style:normal;font-size:14px">85</text>
		<text x="1253.2" y="-15.602" transform="scale(1, -1)"
			  style="font-family:Times;font-weight:normal;font-style:normal;font-size:14px">90</text>
		<text x="1327.9" y="-15.602" transform="scale(1, -1)"
			  style="font-family:Times;font-weight:normal;font-style:normal;font-size:14px">95</text>
		<text x="1400.2" y="-15.602" transform="scale(1, -1)"
			  style="font-family:Times;font-weight:normal;font-style:normal;font-size:14px">100</text>
		<text x="1475" y="-15.602" transform="scale(1, -1)"
			  style="font-family:Times;font-weight:normal;font-style:normal;font-size:14px">105</text>
		<g transform="rotate(90)">
			<text x="374.61" y="7.555" transform="scale(1, -1)"
				  style="font-family:Times;font-weight:normal;font-style:normal;font-size:16px">ns/op</text>
		</g>
		<text x="12.416" y="-69.005" transform="scale(1, -1)"
			  style="font-family:Times;font-weight:normal;font-style:normal;font-size:14px">40000</text>
		<text x="8.416" y="-384.18" transform="scale(1, -1)"
			  style="font-family:Times;font-weight:normal;font-style:normal;font-size:14px">160000</text>
		<text x="8.416" y="-699.35" transform="scale(1, -1)"
			  style="font-family:Times;font-weight:normal;font-style:normal;font-size:14px">280000</text>
		<path d="M47.916,73.727L55.916,73.727" style="fill:none;stroke:#000000;stroke-width:0.5" />
		<path d="M47.916,388.9L55.916,388.9" style="fill:none;stroke:#000000;stroke-width:0.5" />
		<path d="M47.916,704.07L55.916,704.07" style="fill:none;stroke:#000000;stroke-width:0.5" />
		<path d="M51.916,231.31L55.916,231.31" style="fill:none;stroke:#000000;stroke-width:0.5" />
		<path d="M51.916,546.49L55.916,546.49" style="fill:none;stroke:#000000;stroke-width:0.5" />
		<path d="M55.916,30.23L55.916,745" style="fill:none;stroke:#000000;stroke-width:0.5" />
		<path d="M61.666,33.65L136.45,42.331L211.23,50.806L286.01,70.197L360.79,94.733L435.57,126.69L510.35,145.07L585.13,206.25L659.91,217.1L734.69,232.09L809.47,316.85L884.25,308.88L959.03,377.91L1033.8,439.23L1108.6,505.08L1183.4,595.21L1258.2,684.75L1332.9,638.96L1407.7,698.1L1482.5,745" style="fill:none;stroke:#F15A60" />
		<path d="M61.666,30.23L136.45,39.455L211.23,36.329L286.01,56.815L360.79,59.542L435.57,76.847L510.35,84.742L585.13,88.792L659.91,101.62L734.69,117.58L809.47,139.01L884.25,165.64L959.03,177.12L1033.8,195.04L1108.6,219.1L1183.4,274.63L1258.2,280.95L1332.9,302.67L1407.7,314.31L1482.5,394.91" style="fill:none;stroke:#7AC36A" />
		<path d="M1470,739.11L1490,739.11" style="fill:none;stroke:#F15A60" />
		<text x="1239" y="-733.45" transform="scale(1, -1)"
			  style="font-family:Times;font-weight:normal;font-style:normal;font-size:16px">[BenchmarkDL_CacheRecursive=]</text>
		<path d="M1470,727.33L1490,727.33" style="fill:none;stroke:#7AC36A" />
		<text x="1312.3" y="-721.67" transform="scale(1, -1)"
			  style="font-family:Times;font-weight:normal;font-style:normal;font-size:16px">[BenchmarkDL_STD=]</text>
	</g>
</svg>