<?xml version="1.0"?>
<!-- Generated by SVGo and Plotinum VG -->
<svg width="1640pt" height="820pt" viewBox="0 0 1640 820"
	xmlns="http://www.w3.org/2000/svg"
	xmlns:xlink="http://www.w3.org/1999/xlink">
<g transform="scale(1, -1) translate(0, -820)">
<path d="M0,0L1640,0L1640,820L0,820Z" style="fill:#FFFFFF" />
<text x="835.25" y="-3.8613" transform="scale(1, -1)"
	style="font-family:Times;font-weight:normal;font-style:normal;font-size:12px">size</text>
<text x="51.666" y="-15.602" transform="scale(1, -1)"
	style="font-family:Times;font-weight:normal;font-style:normal;font-size:10px">25</text>
<text x="164.23" y="-15.602" transform="scale(1, -1)"
	style="font-family:Times;font-weight:normal;font-style:normal;font-size:10px">50</text>
<text x="276.79" y="-15.602" transform="scale(1, -1)"
	style="font-family:Times;font-weight:normal;font-style:normal;font-size:10px">75</text>
<text x="386.84" y="-15.602" transform="scale(1, -1)"
	style="font-family:Times;font-weight:normal;font-style:normal;font-size:10px">100</text>
<text x="499.4" y="-15.602" transform="scale(1, -1)"
	style="font-family:Times;font-weight:normal;font-style:normal;font-size:10px">125</text>
<text x="611.96" y="-15.602" transform="scale(1, -1)"
	style="font-family:Times;font-weight:normal;font-style:normal;font-size:10px">150</text>
<text x="724.52" y="-15.602" transform="scale(1, -1)"
	style="font-family:Times;font-weight:normal;font-style:normal;font-size:10px">175</text>
<text x="837.08" y="-15.602" transform="scale(1, -1)"
	style="font-family:Times;font-weight:normal;font-style:normal;font-size:10px">200</text>
<text x="949.64" y="-15.602" transform="scale(1, -1)"
	style="font-family:Times;font-weight:normal;font-style:normal;font-size:10px">225</text>
<text x="1062.2" y="-15.602" transform="scale(1, -1)"
	style="font-family:Times;font-weight:normal;font-style:normal;font-size:10px">250</text>
<text x="1174.8" y="-15.602" transform="scale(1, -1)"
	style="font-family:Times;font-weight:normal;font-style:normal;font-size:10px">275</text>
<text x="1287.3" y="-15.602" transform="scale(1, -1)"
	style="font-family:Times;font-weight:normal;font-style:normal;font-size:10px">300</text>
<text x="1399.9" y="-15.602" transform="scale(1, -1)"
	style="font-family:Times;font-weight:normal;font-style:normal;font-size:10px">325</text>
<text x="1512.4" y="-15.602" transform="scale(1, -1)"
	style="font-family:Times;font-weight:normal;font-style:normal;font-size:10px">350</text>
<text x="1625" y="-15.602" transform="scale(1, -1)"
	style="font-family:Times;font-weight:normal;font-style:normal;font-size:10px">375</text>
<g transform="rotate(90)">
<text x="412.11" y="11.555" transform="scale(1, -1)"
	style="font-family:Times;font-weight:normal;font-style:normal;font-size:12px">ns/op</text>
</g>
<text x="15.416" y="-130.29" transform="scale(1, -1)"
	style="font-family:Times;font-weight:normal;font-style:normal;font-size:10px">10000</text>
<text x="15.416" y="-448.68" transform="scale(1, -1)"
	style="font-family:Times;font-weight:normal;font-style:normal;font-size:10px">40000</text>
<text x="15.416" y="-767.06" transform="scale(1, -1)"
	style="font-family:Times;font-weight:normal;font-style:normal;font-size:10px">70000</text>
<path d="M42.916,135.02L50.916,135.02" style="fill:none;stroke:#000000;stroke-width:0.5" />
<path d="M42.916,453.4L50.916,453.4" style="fill:none;stroke:#000000;stroke-width:0.5" />
<path d="M42.916,771.79L50.916,771.79" style="fill:none;stroke:#000000;stroke-width:0.5" />
<path d="M46.916,241.14L50.916,241.14" style="fill:none;stroke:#000000;stroke-width:0.5" />
<path d="M46.916,347.27L50.916,347.27" style="fill:none;stroke:#000000;stroke-width:0.5" />
<path d="M46.916,559.53L50.916,559.53" style="fill:none;stroke:#000000;stroke-width:0.5" />
<path d="M46.916,665.66L50.916,665.66" style="fill:none;stroke:#000000;stroke-width:0.5" />
<path d="M50.916,30.23L50.916,820" style="fill:none;stroke:#000000;stroke-width:0.5" />
<path d="M56.666,33.605L169.23,39.787L281.79,43.417L394.34,47.344L506.9,51.854L619.46,55.76L732.02,64.558L844.58,66.075L957.14,71.817L1069.7,77.389L1182.3,82.759L1294.8,88.946L1407.4,92.82L1519.9,100.59L1632.5,101.03" style="fill:none;stroke:#F15A60" />
<path d="M56.666,30.23L169.23,36.399L281.79,45.391L394.34,58.986L506.9,72.783L619.46,95.611L732.02,124.73L844.58,156.75L957.14,189.75L1069.7,239.45L1182.3,256.19L1294.8,313.26L1407.4,367.02L1519.9,421.1L1632.5,482.92" style="fill:none;stroke:#7AC36A" />
<path d="M56.666,31.633L169.23,39.607L281.79,52.809L394.34,71.148L506.9,93.955L619.46,123.81L732.02,159.96L844.58,201.45L957.14,246.08L1069.7,299.47L1182.3,359.34L1294.8,472.92L1407.4,597.84L1519.9,684.92L1632.5,820" style="fill:none;stroke:#5A9BD4" />
<path d="M1620,814.11L1640,814.11" style="fill:none;stroke:#F15A60" />
<text x="1499.6" y="-808.45" transform="scale(1, -1)"
	style="font-family:Times;font-weight:normal;font-style:normal;font-size:12px">[BenchmarkQuicksort=]</text>
<path d="M1620,802.33L1640,802.33" style="fill:none;stroke:#7AC36A" />
<text x="1484.3" y="-796.67" transform="scale(1, -1)"
	style="font-family:Times;font-weight:normal;font-style:normal;font-size:12px">[BenchmarkInsertionSort=]</text>
<path d="M1620,790.56L1640,790.56" style="fill:none;stroke:#5A9BD4" />
<text x="1492.3" y="-784.89" transform="scale(1, -1)"
	style="font-family:Times;font-weight:normal;font-style:normal;font-size:12px">[BenchmarkBubbleSort=]</text>
</g>
</svg>
