<?xml version="1.0"?>
<!-- Generated by SVGo and Plotinum VG -->
<svg width="1640pt" height="820pt" viewBox="0 0 1640 820"
	xmlns="http://www.w3.org/2000/svg"
	xmlns:xlink="http://www.w3.org/1999/xlink">
<g transform="scale(1, -1) translate(0, -820)">
<path d="M0,0L1640,0L1640,820L0,820Z" style="fill:#FFFFFF" />
<text x="846.5" y="-3.8613" transform="scale(1, -1)"
	style="font-family:Times;font-weight:normal;font-style:normal;font-size:12px">size</text>
<text x="74.166" y="-15.602" transform="scale(1, -1)"
	style="font-family:Times;font-weight:normal;font-style:normal;font-size:10px">100</text>
<text x="184.76" y="-15.602" transform="scale(1, -1)"
	style="font-family:Times;font-weight:normal;font-style:normal;font-size:10px">200</text>
<text x="295.36" y="-15.602" transform="scale(1, -1)"
	style="font-family:Times;font-weight:normal;font-style:normal;font-size:10px">300</text>
<text x="405.95" y="-15.602" transform="scale(1, -1)"
	style="font-family:Times;font-weight:normal;font-style:normal;font-size:10px">400</text>
<text x="516.55" y="-15.602" transform="scale(1, -1)"
	style="font-family:Times;font-weight:normal;font-style:normal;font-size:10px">500</text>
<text x="627.14" y="-15.602" transform="scale(1, -1)"
	style="font-family:Times;font-weight:normal;font-style:normal;font-size:10px">600</text>
<text x="737.74" y="-15.602" transform="scale(1, -1)"
	style="font-family:Times;font-weight:normal;font-style:normal;font-size:10px">700</text>
<text x="848.33" y="-15.602" transform="scale(1, -1)"
	style="font-family:Times;font-weight:normal;font-style:normal;font-size:10px">800</text>
<text x="958.93" y="-15.602" transform="scale(1, -1)"
	style="font-family:Times;font-weight:normal;font-style:normal;font-size:10px">900</text>
<text x="1067" y="-15.602" transform="scale(1, -1)"
	style="font-family:Times;font-weight:normal;font-style:normal;font-size:10px">1000</text>
<text x="1177.8" y="-15.602" transform="scale(1, -1)"
	style="font-family:Times;font-weight:normal;font-style:normal;font-size:10px">1100</text>
<text x="1288.2" y="-15.602" transform="scale(1, -1)"
	style="font-family:Times;font-weight:normal;font-style:normal;font-size:10px">1200</text>
<text x="1398.8" y="-15.602" transform="scale(1, -1)"
	style="font-family:Times;font-weight:normal;font-style:normal;font-size:10px">1300</text>
<text x="1509.4" y="-15.602" transform="scale(1, -1)"
	style="font-family:Times;font-weight:normal;font-style:normal;font-size:10px">1400</text>
<text x="1620" y="-15.602" transform="scale(1, -1)"
	style="font-family:Times;font-weight:normal;font-style:normal;font-size:10px">1500</text>
<g transform="rotate(90)">
<text x="412.11" y="11.555" transform="scale(1, -1)"
	style="font-family:Times;font-weight:normal;font-style:normal;font-size:12px">ns/op</text>
</g>
<text x="20.416" y="-177.56" transform="scale(1, -1)"
	style="font-family:Times;font-weight:normal;font-style:normal;font-size:10px">250000.00</text>
<text x="20.416" y="-484.24" transform="scale(1, -1)"
	style="font-family:Times;font-weight:normal;font-style:normal;font-size:10px">750000.00</text>
<text x="15.416" y="-790.91" transform="scale(1, -1)"
	style="font-family:Times;font-weight:normal;font-style:normal;font-size:10px">1250000.00</text>
<path d="M65.416,182.28L73.416,182.28" style="fill:none;stroke:#000000;stroke-width:0.5" />
<path d="M65.416,488.96L73.416,488.96" style="fill:none;stroke:#000000;stroke-width:0.5" />
<path d="M65.416,795.64L73.416,795.64" style="fill:none;stroke:#000000;stroke-width:0.5" />
<path d="M69.416,59.608L73.416,59.608" style="fill:none;stroke:#000000;stroke-width:0.5" />
<path d="M69.416,120.94L73.416,120.94" style="fill:none;stroke:#000000;stroke-width:0.5" />
<path d="M69.416,243.62L73.416,243.62" style="fill:none;stroke:#000000;stroke-width:0.5" />
<path d="M69.416,304.95L73.416,304.95" style="fill:none;stroke:#000000;stroke-width:0.5" />
<path d="M69.416,366.29L73.416,366.29" style="fill:none;stroke:#000000;stroke-width:0.5" />
<path d="M69.416,427.62L73.416,427.62" style="fill:none;stroke:#000000;stroke-width:0.5" />
<path d="M69.416,550.29L73.416,550.29" style="fill:none;stroke:#000000;stroke-width:0.5" />
<path d="M69.416,611.63L73.416,611.63" style="fill:none;stroke:#000000;stroke-width:0.5" />
<path d="M69.416,672.96L73.416,672.96" style="fill:none;stroke:#000000;stroke-width:0.5" />
<path d="M69.416,734.3L73.416,734.3" style="fill:none;stroke:#000000;stroke-width:0.5" />
<path d="M73.416,30.23L73.416,820" style="fill:none;stroke:#000000;stroke-width:0.5" />
<path d="M81.666,32.45L192.26,40.132L302.86,52.798L413.45,66.092L524.05,85.345L634.64,108.81L745.24,135.65L855.83,165.13L966.43,200.95L1077,237.66L1187.6,283.21L1298.2,327.32L1408.8,376.63L1519.4,431.03L1630,483.98" style="fill:none;stroke:#F15A60" />
<path d="M81.666,30.23L192.26,33.141L302.86,37.523L413.45,43.359L524.05,51.115L634.64,59.971L745.24,70.665L855.83,82.149L966.43,96.73L1077,112.17L1187.6,128.11L1298.2,146L1408.8,165.35L1519.4,187.6L1630,211.05" style="fill:none;stroke:#7AC36A" />
<path d="M81.666,32.109L192.26,42.265L302.86,59.838L413.45,84.079L524.05,115.14L634.64,154.08L745.24,199.57L855.83,252.95L966.43,313.8L1077,381.25L1187.6,455.93L1298.2,536.52L1408.8,621.4L1519.4,721.29L1630,820" style="fill:none;stroke:#5A9BD4" />
<path d="M1620,814.11L1640,814.11" style="fill:none;stroke:#F15A60" />
<text x="1455" y="-808.45" transform="scale(1, -1)"
	style="font-family:Times;font-weight:normal;font-style:normal;font-size:12px">[BenchmarkQuicksortReversed=]</text>
<path d="M1620,802.33L1640,802.33" style="fill:none;stroke:#7AC36A" />
<text x="1439.6" y="-796.67" transform="scale(1, -1)"
	style="font-family:Times;font-weight:normal;font-style:normal;font-size:12px">[BenchmarkInsertionSortReversed=]</text>
<path d="M1620,790.56L1640,790.56" style="fill:none;stroke:#5A9BD4" />
<text x="1447.6" y="-784.89" transform="scale(1, -1)"
	style="font-family:Times;font-weight:normal;font-style:normal;font-size:12px">[BenchmarkBubbleSortReversed=]</text>
</g>
</svg>
